<svg width="46" height="20" viewBox="0 0 46 20" fill="none" xmlns="http://www.w3.org/2000/svg">
<path d="M24.606 20C24.6087 14.2031 24.606 2.58836 24.606 2.58836C24.606 2.58836 27.9701 0.418093 28.7021 0V14.0642C31.8169 10.7054 40.9735 0.0895602 40.9735 0.0895602C40.9735 0.0895602 44.0495 0.0951535 45.7145 0.0951535L36.0071 11.4606C38.1435 14.0673 42.9294 20 42.9294 20H38.2678C36.7118 18.1073 35.1378 16.2298 33.5612 14.3537C31.8346 16.1106 30.3161 18.0809 28.78 20H24.606Z" fill="black"/>
<path d="M7.60485 14.1884H4.28464V5.77532H7.57207V7.95356C10.116 7.95356 12.6601 7.96438 15.204 7.94476C16.5727 7.93546 17.8937 7.24693 17.7441 5.70814C17.61 4.3267 16.1185 4.07773 14.9778 4.07366C11.9207 4.06952 3.95695 4.01396 3.95695 4.01396C3.2042 3.33268 0 0.0106505 0 0.0106505C0 0.0106505 9.40425 -0.00454071 14.1068 0.0178494C15.7312 0.02395 17.3362 0.362278 18.8183 1.01101C20.707 1.83145 21.5674 3.32999 21.8239 5.23955C22.0631 7.02277 21.5781 8.59807 20.4309 9.87751C20.8406 10.6652 21.3576 11.3761 21.5985 12.1661C22.2123 14.1764 21.9107 16.0956 20.5128 17.7373C19.6467 18.7552 18.3939 19.2294 17.1058 19.4893C15.9668 19.7196 14.7943 19.8891 13.634 19.9003C9.12729 19.9459 0.0999743 19.9187 0.0999743 19.9187L3.95623 15.9198C3.95623 15.9198 12.2075 15.86 15.3252 15.8509C16.3823 15.8454 17.6488 15.4228 17.7457 14.214C17.85 12.9043 16.8284 12.0812 15.5751 12.0358C12.9345 12.0153 10.2369 11.8728 7.60157 12.0406L7.60485 14.1884Z" fill="black"/>
</svg>
